<?xml version="1.0" encoding="UTF-8"?><svg xmlns="http://www.w3.org/2000/svg" viewBox="0 0 50 50"><path style="line-height:normal;text-indent:0;text-align:start;text-decoration-line:none;text-decoration-style:solid;text-decoration-color:#000;text-transform:none;block-progression:tb;isolation:auto;mix-blend-mode:normal" d="M8.5 17C3.817 17 0 20.817 0 25.5S3.817 34 8.5 34a8.457 8.457 0 0 0 5.5-2.033 8.457 8.457 0 0 0 11 0 8.457 8.457 0 0 0 11 0A8.457 8.457 0 0 0 41.5 34c4.683 0 8.5-3.817 8.5-8.5S46.183 17 41.5 17a8.457 8.457 0 0 0-5.5 2.033 8.457 8.457 0 0 0-11 0 8.457 8.457 0 0 0-11 0A8.457 8.457 0 0 0 8.5 17zm0 2c1.581 0 3.026.559 4.15 1.49A8.443 8.443 0 0 0 11 25.5c0 1.873.618 3.603 1.65 5.01A6.478 6.478 0 0 1 8.5 32 6.485 6.485 0 0 1 2 25.5C2 21.898 4.898 19 8.5 19zm11 0c1.581 0 3.026.559 4.15 1.49A8.443 8.443 0 0 0 22 25.5c0 1.873.618 3.603 1.65 5.01A6.478 6.478 0 0 1 19.5 32a6.478 6.478 0 0 1-4.15-1.49A8.443 8.443 0 0 0 17 25.5a8.443 8.443 0 0 0-1.65-5.01A6.478 6.478 0 0 1 19.5 19zm11 0c1.581 0 3.026.559 4.15 1.49A8.443 8.443 0 0 0 33 25.5c0 1.873.618 3.603 1.65 5.01A6.478 6.478 0 0 1 30.5 32a6.478 6.478 0 0 1-4.15-1.49A8.443 8.443 0 0 0 28 25.5a8.443 8.443 0 0 0-1.65-5.01A6.478 6.478 0 0 1 30.5 19zm11 0c3.602 0 6.5 2.898 6.5 6.5S45.102 32 41.5 32a6.478 6.478 0 0 1-4.15-1.49A8.443 8.443 0 0 0 39 25.5a8.443 8.443 0 0 0-1.65-5.01A6.478 6.478 0 0 1 41.5 19zM14 22.037c.63 1.002 1 2.186 1 3.463 0 1.277-.37 2.46-1 3.463a6.476 6.476 0 0 1-1-3.463c0-1.277.37-2.46 1-3.463zm11 0c.63 1.002 1 2.186 1 3.463 0 1.277-.37 2.46-1 3.463a6.476 6.476 0 0 1-1-3.463c0-1.277.37-2.46 1-3.463zm11 0c.63 1.002 1 2.186 1 3.463 0 1.277-.37 2.46-1 3.463a6.476 6.476 0 0 1-1-3.463c0-1.277.37-2.46 1-3.463z" font-weight="400" font-family="sans-serif" white-space="normal" overflow="visible"/><metadata><rdf:RDF xmlns:rdf="http://www.w3.org/1999/02/22-rdf-syntax-ns#" xmlns:rdfs="http://www.w3.org/2000/01/rdf-schema#" xmlns:dc="http://purl.org/dc/elements/1.1/"><rdf:Description about="https://iconscout.com/legal#licenses" dc:title="audi,filled" dc:description="audi,filled" dc:publisher="Iconscout" dc:date="2017-12-09" dc:format="image/svg+xml" dc:language="en"><dc:creator><rdf:Bag><rdf:li>Icons8</rdf:li></rdf:Bag></dc:creator></rdf:Description></rdf:RDF></metadata></svg>