<?xml version="1.0" encoding="UTF-8"?><svg xmlns="http://www.w3.org/2000/svg" xmlns:xlink="http://www.w3.org/1999/xlink" version="1.1" id="Layer_1" x="0px" y="0px" viewBox="0 0 48 48" xml:space="preserve"><circle cx="24" cy="24" r="20" fill="#1565C0"/><path d="M24 7C14.611 7 7 14.611 7 24s7.611 17 17 17 17-7.611 17-17S33.389 7 24 7zm0 2c1.502 0 2.951.228 4.32.641L24 18.999l-4.32-9.358A14.931 14.931 0 0 1 24 9zM9 24c0-1.248.17-2.455.459-3.615l7.975 17.081C12.449 35.025 9 29.914 9 24zm15 15c-1.914 0-3.739-.374-5.423-1.03L24 28.563l5.423 9.407A14.902 14.902 0 0 1 24 39zm2.583-14h-5.166l-3.042 5.438-6.817-14.807a15.105 15.105 0 0 1 4.469-4.314L21.516 23h4.968l5.488-11.683a15.105 15.105 0 0 1 4.469 4.314l-6.817 14.807L26.583 25zm3.983 12.466l7.975-17.081C38.83 21.545 39 22.752 39 24c0 5.914-3.449 11.025-8.434 13.466z" fill="#FFF"/><metadata><rdf:RDF xmlns:rdf="http://www.w3.org/1999/02/22-rdf-syntax-ns#" xmlns:rdfs="http://www.w3.org/2000/01/rdf-schema#" xmlns:dc="http://purl.org/dc/elements/1.1/"><rdf:Description about="https://iconscout.com/legal#licenses" dc:title="volkswagen" dc:description="volkswagen" dc:publisher="Iconscout" dc:date="2017-12-15" dc:format="image/svg+xml" dc:language="en"><dc:creator><rdf:Bag><rdf:li>Icons8</rdf:li></rdf:Bag></dc:creator></rdf:Description></rdf:RDF></metadata></svg>